<?xml version="1.0" encoding="utf-8"?>
<!-- Generator: Adobe Illustrator 23.0.1, SVG Export Plug-In . SVG Version: 6.00 Build 0)  -->
<svg version="1.1" id="Logo_my_perfefect_meal" xmlns="http://www.w3.org/2000/svg" xmlns:xlink="http://www.w3.org/1999/xlink"
	 x="0px" y="0px" viewBox="0 0 315.99 254.99" style="enable-background:new 0 0 315.99 254.99;" xml:space="preserve">
<style type="text/css">
	.st0{fill:#00A19A;}
</style>
<path class="st0" d="M258.16,99.7c0,0,1.55,7.1-0.45,17.76c-0.37,2.7-1.24,5.5-2.07,8.5c-1.13,2.88-1.98,6.12-3.67,9.11
	c-1.46,3.1-3.11,6.24-5.24,9.19c-1.86,3.12-4.44,5.8-6.71,8.7c-2.49,2.72-5.32,5.13-7.92,7.65c-2.87,2.26-5.83,4.26-8.63,6.3
	c-2.99,1.73-5.95,3.3-8.73,4.77c-2.78,1.47-5.67,2.36-8.21,3.37c-2.56,1-4.91,1.85-7.11,2.27c-2.16,0.5-4.05,0.93-5.6,1.28
	c-3.13,0.63-4.91,0.92-4.91,0.92s1.58-0.94,4.31-2.45c1.37-0.74,3.04-1.62,4.98-2.64c1.95-0.9,3.97-2.26,6.21-3.61
	c2.21-1.43,4.71-2.74,7.15-4.42c2.4-1.75,4.92-3.59,7.58-5.35c2.45-2.05,4.89-4.26,7.51-6.32c2.3-2.38,4.82-4.64,7.03-7.16
	c2.12-2.59,4.56-4.96,6.31-7.74c0.94-1.36,1.93-2.66,2.89-3.97c0.85-1.38,1.69-2.74,2.5-4.08c1.74-2.65,2.96-5.44,4.38-7.98
	c1.1-2.67,2.44-5.12,3.27-7.53C256.83,106.7,258.16,99.7,258.16,99.7z"/>
<g>
	<path class="st0" d="M238.61,15.96c-11.83-8.38-24.56-10.36-36.46-8.28c-23.94,4.19-44.45,24.96-47.18,43.74
		c-11.33-12.48-43.83-24.48-67.18-5.77l-4.99,4.62c-0.09,0.08-0.18,0.16-0.27,0.24C72.36,61.6,69.06,74.15,70.48,86.31
		c1.85,15.81,11.65,30.92,24.72,41.25c23.12,18.26,50.91,39.8,44.7,64.91c12.25-5.25,22.73-10.35,31.91-15.26
		c1.81-0.97,3.64-1.95,5.33-2.9c2.54-10.22,5.22-21.64,8.03-34.52c4.01-18.39-11.38-32.57-6.34-55.56
		c1.58-7.29,16.48-45.89,19.27-45.32c2.56,0.53-15.29,49.21-10.09,50.28c2.68,0.56,6.57-13.61,10.46-26.88
		c3.62-12.42,6.96-21.81,8.17-21.56c1.3,0.27,0.23,5.7-4.37,26.78c-4.62,21.06-4.07,23.78-2.38,24.12c1.69,0.34,3.3-1.91,7.9-22.99
		c4.6-21.08,5.86-26.47,7.19-26.2c1.21,0.26,0.32,10.16-1.53,22.93c-2.01,13.66-4.37,28.15-1.69,28.7
		c5.2,1.07,9.2-50.47,11.79-49.93c2.82,0.58,0.27,41.73-1.3,49.02c-5.04,22.97-25.02,29.88-29.02,48.26
		c-2.11,9.65-3.94,18.47-5.54,26.65c15.61-9.74,25.91-18.58,33.26-26.21c5.91-6.14,9.91-11.5,13.21-15.88
		C244.74,111.93,281.09,46.06,238.61,15.96z M151.39,143.41c-5.4-0.01-10.63-0.99-15.53-2.91c-6.13-2.4-11.77-6.29-16.76-11.56
		c-5.74-6.06-9.59-13.35-11.43-21.67c-1.47-6.66-1.67-14-0.59-21.8c1.72-12.45,6.2-22.17,6.8-23.43c1.67,6.93,4.72,12.59,9.34,17.3
		c4.14,4.23,9.12,7.32,13.93,10.31c5.95,3.69,12.1,7.51,16.66,13.51c7.62,10.02,8.26,18.05,8.77,24.49
		c0.41,5.21,0.75,9.35,4.49,12.81c-4.27-1.46-8.51-3.25-12.69-5.36c-13.22-6.66-24.05-15.7-28.97-24.16
		c-0.01-0.03-0.05-0.04-0.08-0.02c-0.03,0.01-0.04,0.05-0.02,0.07c4.93,8.49,15.77,17.54,29.01,24.21c1.55,0.78,3.11,1.52,4.68,2.21
		c2.7,1.2,5.43,2.27,8.16,3.2C166.25,140.98,159.94,143.43,151.39,143.41z"/>
	<path class="st0" d="M165.5,142.08c-1.86-0.7-3.73-1.46-5.59-2.28c-1.6-0.71-3.2-1.46-4.78-2.27
		c-13.43-6.77-24.46-15.99-29.49-24.66c-0.33-0.57-0.13-1.3,0.47-1.63c0.59-0.32,1.34-0.12,1.67,0.45
		c6.49,11.17,23.46,23.17,41.97,29.31"/>
</g>
<path class="st0" d="M40.96,44.36c2.99,7.16,6.39,12.17,12.99,13.62c6.59,1.45,14.32-2.55,14.32-2.55s-3.44-9.2-11.15-12.06
	C50.54,40.93,40.96,44.36,40.96,44.36z"/>
<path class="st0" d="M69.55,47.7c-4.13-2.18-11.3-13.21-6.91-22.11c0,0,4.88,4.1,6.84,9.85C71.69,41.89,69.55,47.7,69.55,47.7z"/>
<path class="st0" d="M29.81,220.77c0.2,0.22,0.3,0.51,0.3,0.87v18.14c0,0.34-0.1,0.62-0.29,0.83c-0.19,0.21-0.46,0.32-0.8,0.32
	c-0.34,0-0.6-0.11-0.77-0.32s-0.26-0.49-0.26-0.83v-14.64l-6.22,11.92c-0.27,0.55-0.66,0.83-1.17,0.83c-0.5,0-0.89-0.28-1.18-0.83
	l-6.25-11.78v14.5c0,0.34-0.09,0.62-0.27,0.83s-0.44,0.32-0.79,0.32c-0.34,0-0.61-0.11-0.8-0.32c-0.19-0.21-0.29-0.49-0.29-0.83
	v-18.14c0-0.36,0.1-0.65,0.32-0.87c0.21-0.22,0.5-0.33,0.86-0.33c0.48,0,0.86,0.28,1.15,0.83l7.28,13.96l7.19-13.96
	c0.15-0.31,0.32-0.52,0.5-0.64c0.18-0.12,0.4-0.19,0.64-0.19C29.32,220.44,29.6,220.55,29.81,220.77z"/>
<path class="st0" d="M50.74,220.47c0.27,0,0.51,0.11,0.72,0.32c0.21,0.21,0.31,0.47,0.31,0.77c0,0.29-0.09,0.53-0.26,0.72l-6.96,8.8
	v8.65c0,0.38-0.11,0.68-0.33,0.89c-0.22,0.21-0.5,0.32-0.85,0.32s-0.63-0.11-0.85-0.32c-0.22-0.21-0.33-0.51-0.33-0.89v-8.68
	l-6.96-8.77c-0.19-0.21-0.29-0.45-0.29-0.72c0-0.3,0.11-0.56,0.33-0.77c0.22-0.21,0.47-0.32,0.76-0.32c0.32,0,0.6,0.14,0.83,0.43
	l6.53,8.34l6.51-8.34C50.14,220.61,50.41,220.47,50.74,220.47z"/>
<path class="st0" d="M63.18,248.74l2.58-0.64v-27.51l-2.58-0.65v-0.64h3.87c1.69,0,3.02,0.54,4,1.63c0.37,0.43,0.69,0.96,0.95,1.59
	c0.37-0.74,0.85-1.39,1.42-1.93c1.29-1.29,2.89-1.93,4.81-1.93c1.69,0,3.19,0.44,4.51,1.31c1.32,0.88,2.36,2.16,3.14,3.87
	s1.16,3.78,1.16,6.21c0,3.67-0.85,6.48-2.56,8.45c-1.71,1.96-4.01,2.94-6.9,2.94c-1.38,0-2.58-0.29-3.61-0.86
	c-0.43-0.2-0.87-0.49-1.33-0.86v8.38l2.58,0.64v0.65H63.18V248.74z M78.72,238c0.67-1.43,1.01-4.08,1.01-7.95
	c0-3.7-0.31-6.27-0.92-7.72c-0.62-1.45-1.38-2.17-2.3-2.17c-1.09,0-2.06,0.57-2.92,1.72c-0.37,0.49-0.69,1.06-0.95,1.72v14.83
	c0.4,0.4,0.72,0.69,0.95,0.86c0.77,0.57,1.53,0.86,2.28,0.86C77.09,240.14,78.04,239.43,78.72,238z"/>
<path class="st0" d="M93.52,238.4c-2.04-2.02-3.05-4.81-3.05-8.36c0-2.32,0.44-4.34,1.33-6.06c0.89-1.72,2.13-3.04,3.72-3.96
	c1.59-0.92,3.42-1.38,5.48-1.38s3.88,0.39,5.44,1.16c1.56,0.77,2.77,1.81,3.61,3.12c0.84,1.3,1.27,2.74,1.27,4.32
	c0,0.72-0.07,1.33-0.21,1.85l-0.22,0.73c-1.23,0.26-2.56,0.47-4,0.65c-3.01,0.43-6.05,0.64-9.11,0.64c0,3.32,0.46,5.7,1.38,7.11
	c0.92,1.42,2.18,2.13,3.78,2.13c1.12,0,2.16-0.26,3.12-0.8c0.96-0.53,1.72-1.23,2.28-2.11c0.56-0.87,0.84-1.77,0.84-2.69h1.07
	c0,1.15-0.34,2.24-1.03,3.27c-0.69,1.03-1.65,1.86-2.88,2.47c-1.23,0.62-2.65,0.92-4.26,0.92C98.41,241.43,95.56,240.42,93.52,238.4
	z M102.25,229.83c0.49-0.03,1-0.1,1.55-0.21c0.03-0.14,0.1-0.46,0.21-0.95c0.14-0.72,0.21-1.48,0.21-2.28
	c0-2.38-0.32-4.12-0.95-5.22c-0.63-1.1-1.39-1.66-2.28-1.66c-2.15,0-3.22,3.51-3.22,10.53C99.61,230.04,101.1,229.97,102.25,229.83z
	"/>
<path class="st0" d="M114.54,240.14l2.58-0.65v-18.91l-2.58-0.65v-0.64h3.87c1.69,0,3.02,0.54,4,1.63c0.37,0.43,0.69,0.96,0.95,1.59
	c0.43-0.63,0.96-1.2,1.59-1.72c1.43-1.15,3.04-1.72,4.81-1.72c1.52,0,2.66,0.35,3.42,1.05c0.76,0.7,1.14,1.71,1.14,3.03
	c0,0.97-0.29,1.76-0.88,2.34c-0.59,0.59-1.37,0.88-2.34,0.88c-0.4,0-0.8-0.03-1.2-0.09l-0.52-0.13v-6.02c-1.46,0-2.79,0.57-4,1.72
	c-0.57,0.57-1.03,1.15-1.38,1.72v15.9l2.58,0.65v0.64h-12.04V240.14z"/>
<path class="st0" d="M136.04,240.14l2.58-0.65v-18.27h-3.01v-1.08h3.01v-2.15c0-1.52,0.37-2.88,1.1-4.08
	c0.73-1.2,1.78-2.15,3.14-2.84c1.36-0.69,2.96-1.03,4.79-1.03c1.49,0,2.77,0.22,3.85,0.67c1.08,0.44,1.88,1.03,2.43,1.76
	c0.54,0.73,0.82,1.5,0.82,2.3c0,0.97-0.29,1.76-0.88,2.34c-0.59,0.59-1.37,0.88-2.34,0.88c-0.4,0-0.8-0.03-1.2-0.09l-0.52-0.13
	v-6.66l-0.39-0.09c-0.11-0.03-0.24-0.06-0.39-0.09s-0.32-0.04-0.52-0.04c-0.97,0-1.72,0.51-2.24,1.53
	c-0.52,1.02-0.77,2.87-0.77,5.57v2.15h6.88v1.08h-6.88v18.27l2.58,0.65v0.64h-12.04V240.14z"/>
<path class="st0" d="M156.71,238.4c-2.04-2.02-3.05-4.81-3.05-8.36c0-2.32,0.44-4.34,1.33-6.06s2.13-3.04,3.72-3.96
	c1.59-0.92,3.42-1.38,5.48-1.38s3.88,0.39,5.44,1.16c1.56,0.77,2.77,1.81,3.61,3.12c0.84,1.3,1.27,2.74,1.27,4.32
	c0,0.72-0.07,1.33-0.21,1.85l-0.21,0.73c-1.23,0.26-2.56,0.47-4,0.65c-3.01,0.43-6.05,0.64-9.11,0.64c0,3.32,0.46,5.7,1.38,7.11
	s2.18,2.13,3.78,2.13c1.12,0,2.16-0.26,3.12-0.8c0.96-0.53,1.72-1.23,2.28-2.11s0.84-1.77,0.84-2.69h1.08
	c0,1.15-0.34,2.24-1.03,3.27c-0.69,1.03-1.65,1.86-2.88,2.47s-2.65,0.92-4.25,0.92C161.6,241.43,158.75,240.42,156.71,238.4z
	 M165.44,229.83c0.49-0.03,1-0.1,1.55-0.21c0.03-0.14,0.1-0.46,0.21-0.95c0.14-0.72,0.21-1.48,0.21-2.28c0-2.38-0.32-4.12-0.95-5.22
	c-0.63-1.1-1.39-1.66-2.28-1.66c-2.15,0-3.22,3.51-3.22,10.53C162.8,230.04,164.29,229.97,165.44,229.83z"/>
<path class="st0" d="M180.79,238.4c-2.04-2.02-3.05-4.81-3.05-8.36s1.02-6.34,3.05-8.36c2.03-2.02,4.89-3.03,8.55-3.03
	c2.64,0,4.62,0.46,5.95,1.38c1.33,0.92,2,2.04,2,3.35c0,0.97-0.29,1.76-0.88,2.34c-0.59,0.59-1.37,0.88-2.34,0.88
	c-0.4,0-0.8-0.03-1.2-0.09l-0.52-0.13v-6.45l-0.6-0.21c-0.43-0.14-0.95-0.21-1.55-0.21c-1.63,0-2.9,0.77-3.8,2.32
	c-0.9,1.55-1.35,4.28-1.35,8.21c0,3.81,0.45,6.48,1.35,8.02c0.9,1.53,2.17,2.3,3.8,2.3c1.12,0,2.16-0.26,3.12-0.8
	c0.96-0.53,1.72-1.23,2.28-2.11s0.84-1.77,0.84-2.69h1.08c0,1.15-0.34,2.24-1.03,3.27c-0.69,1.03-1.65,1.86-2.88,2.47
	s-2.65,0.92-4.25,0.92C185.67,241.43,182.82,240.42,180.79,238.4z"/>
<path class="st0" d="M206.77,240.4c-1.39-0.69-2.46-1.63-3.2-2.84c-0.75-1.2-1.12-2.56-1.12-4.08v-13.11h-3.01v-1.08h3.01v-2.15
	c0-2.58,1.29-3.87,3.87-3.87h3.01v6.02h6.02v1.08h-6.02v13.11c0,2.64,0.27,4.44,0.82,5.42c0.54,0.97,1.35,1.46,2.41,1.46
	c1.03,0,1.93-0.5,2.71-1.5c0.77-1,1.16-2.36,1.16-4.08h1.08c0,2.12-0.53,3.76-1.59,4.92c-1.06,1.16-2.46,1.74-4.21,1.74
	C209.8,241.43,208.16,241.09,206.77,240.4z"/>
<path class="st0" d="M247.16,220.77c0.2,0.22,0.3,0.51,0.3,0.87v18.14c0,0.34-0.1,0.62-0.29,0.83c-0.19,0.21-0.46,0.32-0.8,0.32
	s-0.6-0.11-0.77-0.32c-0.17-0.21-0.26-0.49-0.26-0.83v-14.64l-6.22,11.92c-0.27,0.55-0.66,0.83-1.18,0.83
	c-0.5,0-0.89-0.28-1.17-0.83l-6.25-11.78v14.5c0,0.34-0.09,0.62-0.27,0.83s-0.44,0.32-0.79,0.32s-0.61-0.11-0.8-0.32
	c-0.19-0.21-0.29-0.49-0.29-0.83v-18.14c0-0.36,0.1-0.65,0.32-0.87c0.21-0.22,0.5-0.33,0.86-0.33c0.48,0,0.86,0.28,1.15,0.83
	l7.28,13.96l7.19-13.96c0.15-0.31,0.32-0.52,0.5-0.64s0.4-0.19,0.64-0.19C246.67,220.44,246.95,220.55,247.16,220.77z"/>
<path class="st0" d="M254.95,240.47c-0.22-0.21-0.33-0.49-0.33-0.83v-17.91c0-0.34,0.11-0.62,0.33-0.83
	c0.22-0.21,0.51-0.31,0.87-0.31h10.72c0.34,0,0.61,0.09,0.8,0.26c0.19,0.17,0.29,0.41,0.29,0.72c0,0.31-0.1,0.54-0.29,0.72
	c-0.19,0.17-0.46,0.26-0.8,0.26h-9.6v7.02h9.03c0.34,0,0.61,0.09,0.8,0.26c0.19,0.17,0.29,0.41,0.29,0.72c0,0.31-0.1,0.54-0.29,0.72
	c-0.19,0.17-0.46,0.26-0.8,0.26h-9.03v7.34h9.6c0.34,0,0.61,0.08,0.8,0.24c0.19,0.16,0.29,0.41,0.29,0.73c0,0.31-0.1,0.54-0.29,0.72
	c-0.19,0.17-0.46,0.26-0.8,0.26h-10.72C255.46,240.79,255.17,240.68,254.95,240.47z"/>
<path class="st0" d="M290.56,239.93c0,0.29-0.11,0.53-0.33,0.72c-0.22,0.19-0.48,0.29-0.79,0.29c-0.48,0-0.81-0.23-1-0.69
	l-2.03-4.64h-10.8l-2.06,4.64c-0.19,0.46-0.53,0.69-1,0.69c-0.31,0-0.57-0.1-0.8-0.3c-0.23-0.2-0.34-0.44-0.34-0.73
	c0-0.15,0.04-0.3,0.11-0.46l8.2-18.23c0.12-0.27,0.29-0.47,0.52-0.6c0.23-0.13,0.48-0.2,0.75-0.2c0.29,0,0.54,0.07,0.77,0.21
	c0.23,0.14,0.4,0.34,0.52,0.59l8.2,18.23C290.52,239.6,290.56,239.76,290.56,239.93z M276.46,233.65h9.08l-4.56-10.29L276.46,233.65
	z"/>
<path class="st0" d="M296.36,240.49c-0.22-0.2-0.33-0.46-0.33-0.79v-18.05c0-0.36,0.1-0.65,0.32-0.87c0.21-0.22,0.5-0.33,0.86-0.33
	s0.65,0.11,0.86,0.33c0.21,0.22,0.31,0.51,0.31,0.87v17.14h9.26c0.34,0,0.61,0.09,0.8,0.26c0.19,0.17,0.29,0.42,0.29,0.75
	s-0.1,0.57-0.29,0.75c-0.19,0.17-0.46,0.26-0.8,0.26h-10.46C296.85,240.79,296.58,240.69,296.36,240.49z"/>
</svg>
